<svg version="1" xmlns="http://www.w3.org/2000/svg" width="356" height="356" viewBox="0 0 267.000000 267.000000"><path d="M156.5 5.7c-12.1 1.5-32.5 9.2-46.8 17.7-16.6 9.9-31.4 23.5-44.8 41.1-7 9.2-19.1 27.2-24 35.5-6.5 11.2-16.9 33.2-16.9 35.8 0 3.4 5.2 8.2 8.8 8.2 1.7 0 3.8-.3 4.7-.6.9-.4 4.9-7.2 8.9-15.3 7.7-15.6 27.2-46.2 35.9-56.4 10.9-12.9 21.3-22.4 33.2-30.4C138.7 25.8 148.1 22 163.2 22c10.8 0 13.3 1 24 9.2 22 17 36.4 43.1 38.6 70.3 1.1 13.5.5 19.3-3.5 35.4-3.5 14.1-8.2 24.6-18.6 41.9-10 16.5-16.8 25.1-29.8 37.8-11 10.6-18.3 15.7-31.7 22.2l-9.7 4.7h-30l-7.7-3.8c-6-3-9.5-5.8-15.6-12.1-8.8-9.2-11.9-14.7-15.8-28.5-4.7-16.4-2.4-30.1 9-54.3 9.6-20.3 25.9-45.1 35.9-54.4 3.8-3.5 7.3-6.4 7.6-6.4.4 0 .6 1.3.3 3-.3 2.4.3 3.7 3.1 6.5 5.2 5.2 11.2 4.3 14.3-2.3 6.2-13-1.8-25.2-16.5-25.2-7.2 0-12.3 2.6-19.8 9.9-15.1 14.7-42.7 60.6-50.9 84.6-2.2 6.4-2.8 10.3-3.2 20-.4 10.8-.1 13.1 2.3 22 2.6 9.6 4.1 13.7 8.8 23.5 3.2 6.6 19.8 23.4 27.2 27.5 12.1 6.8 20.3 8.7 36.6 8.6 14.3-.1 23.3-2.3 35.5-8.5 23-11.7 39.9-27.2 57.6-53.1 23.5-34.2 33.2-60.7 33.1-90-.1-26.3-5.7-44.8-20-66.2-8-12-25-28.1-34.4-32.7-10.7-5.1-22.7-7.3-33.4-5.9z"/></svg>